<svg width="23" height="23" viewBox="0 0 23 23" fill="none" xmlns="http://www.w3.org/2000/svg"><g clip-path="url(#clip0)" fill="#fff"><path d="M22.996 8.794a.363.363 0 00-.016-.078.383.383 0 00-.022-.066.338.338 0 00-.038-.059.362.362 0 00-.051-.06l-.016-.017-3.686-2.863V2.683a1.15 1.15 0 00-1.15-1.15h-4.155L12.2.241a1.137 1.137 0 00-1.398 0L9.137 1.533H4.983a1.15 1.15 0 00-1.15 1.15v2.968L.147 8.514c-.007.005-.01.013-.015.018a.36.36 0 00-.051.06.342.342 0 00-.039.058.378.378 0 00-.021.066.363.363 0 00-.016.077c0 .008-.005.015-.005.023V21.85c0 .244.08.48.225.676.003.004.003.008.006.011.002.003.008.006.012.01.215.284.55.451.906.453H21.85a1.15 1.15 0 00.91-.454c.002-.004.007-.005.01-.009l.005-.01c.146-.196.225-.433.225-.677V8.817c0-.008-.004-.015-.004-.023zM11.27.846a.368.368 0 01.457 0l.884.687h-2.223l.882-.687zM1.246 22.234l10.024-7.786a.368.368 0 01.457 0l10.026 7.786H1.246zm20.988-.598l-10.035-7.793a1.138 1.138 0 00-1.398 0L.766 21.636V9.401l6.282 4.878a.383.383 0 00.47-.606L1.136 8.717l2.697-2.096v2.962a.383.383 0 00.766 0v-6.9c0-.212.172-.383.384-.383h13.034c.211 0 .383.171.383.383v6.9a.383.383 0 10.767 0V6.621l2.696 2.096-6.393 4.964a.384.384 0 10.47.606l6.293-4.886v12.235z"/><path d="M16.1 9.2V7.665a4.6 4.6 0 10-4.6 4.6.383.383 0 100-.767 3.833 3.833 0 113.833-3.833v1.533a.767.767 0 01-1.534 0V7.666a.383.383 0 10-.766 0 1.533 1.533 0 11-1.534-1.534.383.383 0 000-.766 2.3 2.3 0 101.55 3.995 1.53 1.53 0 003.05-.162z"/></g><defs><clipPath id="clip0"><path fill="#fff" d="M0 0h23v23H0z"/></clipPath></defs></svg>