<svg width="23" height="23" viewBox="0 0 23 23" fill="none" xmlns="http://www.w3.org/2000/svg"><path d="M16.096.443H6.409A5.973 5.973 0 00.443 6.409v9.687a5.973 5.973 0 005.966 5.966h9.687a5.973 5.973 0 005.966-5.966V6.409A5.973 5.973 0 0016.096.443zm4.048 15.653a4.053 4.053 0 01-4.048 4.048H6.409a4.052 4.052 0 01-4.048-4.048V6.409A4.053 4.053 0 016.409 2.36h9.687a4.053 4.053 0 014.048 4.048v9.687z" fill="#fff"/><path d="M11.252 5.682a5.577 5.577 0 00-5.57 5.57 5.577 5.577 0 005.57 5.571 5.577 5.577 0 005.571-5.57 5.577 5.577 0 00-5.57-5.571zm0 9.223A3.657 3.657 0 017.6 11.253 3.657 3.657 0 0111.252 7.6a3.657 3.657 0 013.653 3.653 3.657 3.657 0 01-3.652 3.652zm5.805-10.85a1.412 1.412 0 00-1.407 1.407c0 .37.151.733.413.995.261.26.624.412.994.412s.733-.151.995-.412c.262-.262.412-.625.412-.995s-.15-.734-.412-.995a1.413 1.413 0 00-.995-.412z" fill="#fff"/></svg>