<svg version="1.1" id="Layer_1" xmlns="http://www.w3.org/2000/svg" xmlns:xlink="http://www.w3.org/1999/xlink" x="0" y="0" viewBox="0 0 512.001 512.001" xml:space="preserve" fill="#fff"><path d="M469.124 130.81c-13.45 0-26.167 6.43-34.216 17.049h-6.174v-56.48a8.111 8.111 0 00-8.113-8.113h-27.149a8.111 8.111 0 00-8.113 8.113 8.111 8.111 0 008.113 8.113h19.036v56.48a8.111 8.111 0 008.113 8.113h18.59a8.112 8.112 0 006.975-3.97c4.792-8.067 13.581-13.079 22.937-13.079 14.695 0 26.651 11.956 26.651 26.652s-11.956 26.652-26.651 26.652c-9.358 0-18.147-5.01-22.936-13.077a8.117 8.117 0 00-6.976-3.971h-18.59a8.111 8.111 0 00-8.113 8.113v56.481h-56.481a8.112 8.112 0 00-8.113 8.113v18.594a8.11 8.11 0 003.972 6.976c8.065 4.788 13.076 13.577 13.076 22.936 0 14.694-11.955 26.649-26.65 26.649-14.696 0-26.652-11.955-26.652-26.649 0-9.359 5.011-18.147 13.076-22.936a8.114 8.114 0 003.972-6.976v-18.594a8.112 8.112 0 00-8.113-8.113h-56.481v-48.368h6.174c8.046 10.617 20.763 17.048 34.216 17.048 23.641 0 42.876-19.235 42.876-42.878 0-23.642-19.234-42.878-42.876-42.878-13.451 0-26.167 6.43-34.215 17.049h-6.176V99.492h102.312a8.111 8.111 0 008.113-8.113 8.111 8.111 0 00-8.113-8.113H199.52v-6.174c10.617-8.046 17.047-20.763 17.047-34.215C216.567 19.235 197.333 0 173.689 0c-23.642 0-42.878 19.234-42.878 42.877 0 13.45 6.429 26.165 17.048 34.214v6.176H91.38a8.111 8.111 0 00-8.113 8.113v221.102h-6.176c-8.046-10.617-20.76-17.048-34.214-17.048C19.235 295.433 0 314.669 0 338.311c0 23.642 19.235 42.878 42.878 42.878 13.45 0 26.165-6.43 34.214-17.05h6.176v56.482a8.111 8.111 0 008.113 8.113h28.769c4.482 0 8.113-3.631 8.113-8.113s-3.631-8.113-8.113-8.113H99.493v-56.482a8.111 8.111 0 00-8.113-8.113H72.787a8.11 8.11 0 00-6.975 3.971c-4.791 8.068-13.579 13.079-22.934 13.079-14.696 0-26.652-11.956-26.652-26.652 0-14.696 11.956-26.652 26.652-26.652 9.358 0 18.146 5.01 22.932 13.076a8.113 8.113 0 006.976 3.972h18.593a8.111 8.111 0 008.113-8.113v-56.481h56.482a8.111 8.111 0 008.113-8.113v-18.593a8.11 8.11 0 00-3.971-6.975c-8.067-4.792-13.079-13.58-13.079-22.935 0-14.696 11.956-26.652 26.651-26.652 14.696 0 26.652 11.956 26.652 26.652 0 9.356-5.01 18.144-13.077 22.935a8.112 8.112 0 00-3.971 6.975V256a8.111 8.111 0 008.113 8.113h56.482v48.368h-6.178c-8.047-10.618-20.763-17.049-34.213-17.049-23.642 0-42.878 19.235-42.878 42.879 0 23.643 19.235 42.879 42.878 42.879 13.451 0 26.166-6.431 34.214-17.051h6.177v48.37H145.396a8.111 8.111 0 00-8.113 8.113 8.111 8.111 0 008.113 8.113h167.086v6.174c-10.617 8.047-17.046 20.763-17.046 34.215 0 23.642 19.234 42.877 42.876 42.877s42.878-19.234 42.878-42.877c0-13.45-6.429-26.166-17.048-34.214v-6.176h56.479a8.111 8.111 0 008.113-8.113V199.518h6.173c8.048 10.617 20.765 17.048 34.217 17.048 23.642 0 42.877-19.235 42.877-42.878-.001-23.643-19.235-42.878-42.877-42.878zM199.519 247.887v-6.176c10.617-8.047 17.048-20.764 17.048-34.214 0-23.642-19.235-42.878-42.878-42.878-23.642 0-42.877 19.235-42.877 42.878 0 13.45 6.43 26.166 17.05 34.215v6.174H99.493V99.492h56.48a8.111 8.111 0 008.113-8.113V72.788a8.114 8.114 0 00-3.97-6.975c-8.066-4.792-13.078-13.58-13.078-22.935 0-14.696 11.955-26.652 26.651-26.652 14.695 0 26.651 11.956 26.651 26.651 0 9.358-5.01 18.145-13.076 22.934a8.117 8.117 0 00-3.971 6.976V91.38a8.111 8.111 0 008.113 8.113h56.481v56.48a8.111 8.111 0 008.113 8.113h18.593a8.112 8.112 0 006.975-3.97c4.791-8.067 13.58-13.079 22.936-13.079 14.695 0 26.65 11.956 26.65 26.652s-11.955 26.652-26.65 26.652c-9.358 0-18.146-5.01-22.935-13.076a8.114 8.114 0 00-6.976-3.972H256a8.111 8.111 0 00-8.113 8.113v56.481h-48.368zM412.508 355.31v57.199h-56.479v-.001a8.111 8.111 0 00-8.113 8.113v18.593a8.113 8.113 0 003.97 6.975c8.066 4.792 13.078 13.58 13.078 22.935 0 14.695-11.956 26.651-26.652 26.651-14.695 0-26.65-11.956-26.65-26.651 0-9.358 5.009-18.146 13.075-22.933a8.117 8.117 0 003.971-6.976v-18.593a8.112 8.112 0 00-8.113-8.113h-56.481v-56.483a8.111 8.111 0 00-8.113-8.113h-18.594a8.115 8.115 0 00-6.976 3.971c-4.79 8.069-13.577 13.08-22.932 13.08-14.696 0-26.652-11.957-26.652-26.654s11.956-26.654 26.652-26.654c9.355 0 18.143 5.012 22.933 13.078a8.112 8.112 0 006.975 3.971h18.594a8.111 8.111 0 008.113-8.113v-56.48h48.368v6.177c-10.617 8.047-17.048 20.764-17.048 34.217 0 23.641 19.235 42.875 42.878 42.875 23.641 0 42.876-19.233 42.876-42.875 0-13.454-6.43-26.171-17.048-34.217v-6.177h48.368v91.198z"/></svg>