<svg width="135" height="141" viewBox="0 0 135 141" fill="none" xmlns="http://www.w3.org/2000/svg"><path d="M74.463 50.336a1.951 1.951 0 002.376 1.406l18.907-4.852a1.951 1.951 0 10-.97-3.782l-18.907 4.853a1.951 1.951 0 00-1.406 2.375zm14.256 8.434a1.951 1.951 0 002.375 1.405l11.345-2.911a1.951 1.951 0 10-.971-3.782l-11.344 2.912a1.951 1.951 0 00-1.405 2.376zM81.49 38.457a1.951 1.951 0 10-.97-3.782l-3.781.97a1.951 1.951 0 10.97 3.782l3.782-.97zM63.654 63.186a1.951 1.951 0 10.97 3.782l18.907-4.852a1.951 1.951 0 10-.97-3.782l-18.907 4.852zm23.04 50.515L50.77 122.92a5.864 5.864 0 01-7.128-4.217l-22.32-86.974a1.951 1.951 0 00-2.375-1.405c-5.213 1.338-8.366 6.667-7.028 11.88a1.951 1.951 0 103.781-.97 5.867 5.867 0 012.41-6.32l21.75 84.76c1.338 5.212 6.667 8.365 11.88 7.027l35.924-9.219a1.95 1.95 0 10-.97-3.781z" fill="#1A76DC" fill-opacity=".3"/><path d="M42.806 60.476l26.47-6.793a1.951 1.951 0 10-.97-3.782l-26.47 6.793a1.951 1.951 0 10.97 3.782zm-2.911-11.345l7.563-1.94a1.951 1.951 0 10-.97-3.782l-7.564 1.94a1.951 1.951 0 10.97 3.782zm29.281-11.545L54.05 41.468a1.951 1.951 0 10.97 3.781l15.126-3.881a1.951 1.951 0 10-.97-3.782z" fill="#1A76DC" fill-opacity=".3"/><path d="M88.864 4.367L17.017 22.805C7.655 25.207 1.986 34.76 4.35 44.122l.006.022.005.021.006.023.006.023A17.638 17.638 0 0016.644 56.7a1.95 1.95 0 101.055-3.757 13.726 13.726 0 01-9.556-9.748c-1.857-7.29 2.553-14.738 9.844-16.609L89.835 8.148c7.296-1.872 14.758 2.54 16.631 9.839l20.379 79.41c.246.96.224 1.99-.06 2.978a1.954 1.954 0 002.359 2.432 1.945 1.945 0 001.392-1.351 9.574 9.574 0 00.09-5.029l-20.378-79.41c-2.408-9.384-12-15.058-21.384-12.65z" fill="#1A76DC" fill-opacity=".3"/><path d="M116.845 89.841c-1.606-6.256-7.999-10.038-14.256-8.433-6.256 1.606-10.038 8-8.433 14.256 1.606 6.256 7.999 10.038 14.256 8.433 6.256-1.606 10.038-8 8.433-14.256zm-9.404 10.474c-4.171 1.071-8.433-1.45-9.503-5.622-1.07-4.17 1.45-8.433 5.622-9.503 4.171-1.07 8.433 1.45 9.503 5.622 1.071 4.17-1.451 8.433-5.622 9.503zm-1.956 6.55a1.955 1.955 0 00-2.406 1.355l-2.26 8.099-.897-.81a1.94 1.94 0 00-1.68-.469l-1.187.23 2.3-8.228a1.953 1.953 0 00-3.762-1.05l-3.147 11.269a1.955 1.955 0 00.446 1.848c.458.497 1.14.723 1.806.592l3.327-.644 2.513 2.276a1.95 1.95 0 001.794.444l.059-.015a1.963 1.963 0 001.338-1.351l3.112-11.141a1.952 1.952 0 00-1.356-2.405zm15.145-7.204a1.95 1.95 0 00-2.76-.029 1.951 1.951 0 00-.031 2.761l5.906 6.027-1.151.37a1.964 1.964 0 00-1.248 1.221l-.393 1.141-5.851-5.979a1.952 1.952 0 10-2.791 2.731l8.062 8.235a1.96 1.96 0 001.823.54l.059-.015a1.955 1.955 0 001.361-1.254l1.105-3.201 3.224-1.039a1.949 1.949 0 001.298-1.389 1.96 1.96 0 00-.499-1.835l-8.114-8.285zM45.717 71.82l11.344-2.911a1.951 1.951 0 10-.97-3.782L44.747 68.04a1.951 1.951 0 10.97 3.78zm2.911 11.344l22.69-5.822a1.951 1.951 0 10-.971-3.781l-22.689 5.822a1.951 1.951 0 10.97 3.781zm6.24 23.483a1.95 1.95 0 102.947-2.558c-2.833-3.263-4.114-6.514-3.433-8.698.362-1.163 1.313-1.949 2.83-2.338.901-.231 1.317-.008 1.607.24 1.93 1.67 2.178 8.198 1.738 12.301a1.952 1.952 0 003.622 1.203 46.65 46.65 0 011.864-2.889l.237.924a1.948 1.948 0 001.615 1.446 1.947 1.947 0 001.956-.937 24.39 24.39 0 012.115-3.011c-.01.053-.022.104-.033.153a1.954 1.954 0 002.396 2.299l7.562-1.94a1.952 1.952 0 00-.97-3.782l-4.922 1.263c-.077-.94-.35-1.844-.995-2.465-.682-.657-1.637-.89-2.616-.639-1.169.3-2.36 1.364-3.39 2.567-.308-.8-.97-1.353-1.79-1.469-.558-.078-1.278-.184-2.614 1.169-.214-3.418-.996-7.22-3.219-9.144-.971-.84-2.65-1.708-5.133-1.07-2.833.727-4.817 2.487-5.588 4.958-1.102 3.535.432 8.061 4.214 12.417zm44.325-38.474a1.951 1.951 0 00-2.376-1.405L77.91 71.62a1.951 1.951 0 10.97 3.781l18.907-4.852a1.951 1.951 0 001.406-2.376z" fill="#1A76DC" fill-opacity=".3"/></svg>