<svg width="23" height="23" viewBox="0 0 23 23" fill="none" xmlns="http://www.w3.org/2000/svg"><path d="M16.328 0H6.672a1.69 1.69 0 00-1.689 1.689v19.623c0 .93.758 1.689 1.689 1.689h9.656c.931 0 1.689-.758 1.689-1.689V1.69c0-.932-.758-1.69-1.689-1.69zM5.75 3.067h11.5v14.567H5.75V3.067zm.922-2.3h9.656c.509 0 .922.413.922.922V2.3H5.75v-.61c0-.509.413-.922.922-.922zm9.656 21.467H6.672a.923.923 0 01-.922-.922v-2.911h11.5v2.911a.923.923 0 01-.922.922z" fill="#fff"/><path d="M11.5 18.784a1.534 1.534 0 000 3.067 1.535 1.535 0 000-3.067zm0 2.3a.768.768 0 11.002-1.535.768.768 0 01-.002 1.535zM9.967 1.917H11.5a.383.383 0 100-.767H9.967a.383.383 0 100 .767zm2.683 0h.383a.383.383 0 100-.767h-.383a.383.383 0 100 .767zm9.052-.166a.383.383 0 10-.543.543 3.678 3.678 0 010 5.195.383.383 0 10.543.542 4.445 4.445 0 000-6.28z" fill="#fff"/><path d="M20.087 2.624a.383.383 0 10-.542.542c.474.474.735 1.106.735 1.778 0 .673-.26 1.304-.735 1.778a.383.383 0 10.542.542c.62-.618.96-1.442.96-2.32 0-.877-.34-1.701-.96-2.32zM1.84 2.294a.383.383 0 10-.542-.543 4.445 4.445 0 000 6.28.382.382 0 00.542 0 .383.383 0 000-.542 3.677 3.677 0 010-5.195z" fill="#fff"/><path d="M3.455 2.518a.383.383 0 00-.542 0 3.258 3.258 0 00-.96 2.32c0 .877.34 1.701.96 2.32a.382.382 0 00.542 0 .383.383 0 000-.541 2.498 2.498 0 01-.736-1.779c0-.672.261-1.304.736-1.778a.384.384 0 000-.542z" fill="#fff"/></svg>