<svg width="20" height="22" viewBox="0 0 20 22" fill="none" xmlns="http://www.w3.org/2000/svg"><g clip-path="url(#clip0)" fill-opacity=".6"><path d="M12.149 9.505c-1.896 0-3.438 1.62-3.438 3.61 0 1.99 1.542 3.61 3.438 3.61 1.895 0 3.437-1.62 3.437-3.61 0-1.99-1.542-3.61-3.437-3.61zm0 6.399c-1.465 0-2.657-1.251-2.657-2.79 0-1.537 1.192-2.788 2.657-2.788 1.464 0 2.656 1.25 2.656 2.789 0 1.538-1.192 2.789-2.656 2.789z" fill="url(#paint0_linear)"/><path d="M19.651 19.026l-3.1-3.255c.43-.783.676-1.69.676-2.656a5.456 5.456 0 00-1.408-3.681V4.829a.42.42 0 00-.114-.29L11.877.52a.38.38 0 00-.276-.119V.4H1.211C.565.4.039.952.039 1.63v18.54c0 .678.526 1.23 1.172 1.23h13.437c.646 0 1.171-.552 1.171-1.23v-1.234l1.959 2.057c.258.27.597.406.937.406.339 0 .678-.135.936-.406a1.442 1.442 0 000-1.967zm-7.502-1.4c-2.37 0-4.297-2.023-4.297-4.511s1.927-4.512 4.297-4.512c2.369 0 4.296 2.024 4.296 4.512 0 2.488-1.927 4.512-4.296 4.512zM11.992 1.8l2.494 2.62h-2.104a.401.401 0 01-.39-.41V1.8zm3.046 18.37a.4.4 0 01-.39.41H1.21a.401.401 0 01-.39-.41V1.63a.4.4 0 01.39-.41h10v2.79c0 .678.525 1.23 1.171 1.23h2.656v3.494a4.884 4.884 0 00-2.89-.95c-2.8 0-5.078 2.392-5.078 5.332 0 .574.088 1.127.248 1.646H2.545a.4.4 0 00-.39.41.4.4 0 00.39.41h4.988a.37.37 0 00.106-.016c.847 1.71 2.55 2.882 4.51 2.882.92 0 1.784-.258 2.529-.71l.36.379v2.054zm4.06.243a.526.526 0 01-.768 0l-2.997-3.148c.282-.24.54-.51.768-.807l2.998 3.148a.591.591 0 010 .807z" fill="url(#paint1_linear)"/><path d="M12.149 11.27a.4.4 0 00-.391.41.4.4 0 00.39.41c.539 0 .977.46.977 1.025a.4.4 0 00.39.41.4.4 0 00.391-.41c0-1.018-.788-1.846-1.757-1.846z" fill="url(#paint2_linear)"/><path d="M6.06 11.917H2.546a.4.4 0 00-.39.41.4.4 0 00.39.41h3.516a.4.4 0 00.39-.41.4.4 0 00-.39-.41z" fill="url(#paint3_linear)"/><path d="M6.292 9.073H2.545a.4.4 0 00-.39.41.4.4 0 00.39.41h3.747a.4.4 0 00.39-.41.4.4 0 00-.39-.41z" fill="url(#paint4_linear)"/><path d="M7.46 17.605a.383.383 0 00-.275.12.424.424 0 000 .58c.072.076.173.12.276.12a.385.385 0 00.276-.12.423.423 0 000-.58.385.385 0 00-.276-.12z" fill="url(#paint5_linear)"/><path d="M5.857 17.605H2.545a.4.4 0 00-.39.41.4.4 0 00.39.41h3.312a.4.4 0 00.39-.41.4.4 0 00-.39-.41z" fill="url(#paint6_linear)"/><path d="M2.545 7.05a.384.384 0 00.276-.12.423.423 0 000-.58.384.384 0 00-.276-.12.385.385 0 00-.276.12.424.424 0 000 .58c.072.076.173.12.276.12z" fill="url(#paint7_linear)"/><path d="M10.04 6.23H4.2a.4.4 0 00-.39.41.4.4 0 00.39.41h5.84a.4.4 0 00.39-.41.4.4 0 00-.39-.41z" fill="url(#paint8_linear)"/><path d="M2.545 4.206h7.494a.4.4 0 00.39-.41.4.4 0 00-.39-.41H2.545a.4.4 0 00-.39.41.4.4 0 00.39.41z" fill="url(#paint9_linear)"/></g><defs><linearGradient id="paint0_linear" x1="12.149" y1="9.505" x2="12.149" y2="16.724" gradientUnits="userSpaceOnUse"><stop stop-color="#1A76DC"/><stop offset="1" stop-color="#000FA8"/></linearGradient><linearGradient id="paint1_linear" x1="10.039" y1=".4" x2="10.039" y2="21.4" gradientUnits="userSpaceOnUse"><stop stop-color="#1A76DC"/><stop offset="1" stop-color="#000FA8"/></linearGradient><linearGradient id="paint2_linear" x1="12.832" y1="11.269" x2="12.832" y2="13.525" gradientUnits="userSpaceOnUse"><stop stop-color="#1A76DC"/><stop offset="1" stop-color="#000FA8"/></linearGradient><linearGradient id="paint3_linear" x1="4.303" y1="11.917" x2="4.303" y2="12.737" gradientUnits="userSpaceOnUse"><stop stop-color="#1A76DC"/><stop offset="1" stop-color="#000FA8"/></linearGradient><linearGradient id="paint4_linear" x1="4.419" y1="9.073" x2="4.419" y2="9.894" gradientUnits="userSpaceOnUse"><stop stop-color="#1A76DC"/><stop offset="1" stop-color="#000FA8"/></linearGradient><linearGradient id="paint5_linear" x1="7.461" y1="17.605" x2="7.461" y2="18.425" gradientUnits="userSpaceOnUse"><stop stop-color="#1A76DC"/><stop offset="1" stop-color="#000FA8"/></linearGradient><linearGradient id="paint6_linear" x1="4.201" y1="17.605" x2="4.201" y2="18.425" gradientUnits="userSpaceOnUse"><stop stop-color="#1A76DC"/><stop offset="1" stop-color="#000FA8"/></linearGradient><linearGradient id="paint7_linear" x1="2.545" y1="6.229" x2="2.545" y2="7.05" gradientUnits="userSpaceOnUse"><stop stop-color="#1A76DC"/><stop offset="1" stop-color="#000FA8"/></linearGradient><linearGradient id="paint8_linear" x1="7.12" y1="6.229" x2="7.12" y2="7.05" gradientUnits="userSpaceOnUse"><stop stop-color="#1A76DC"/><stop offset="1" stop-color="#000FA8"/></linearGradient><linearGradient id="paint9_linear" x1="6.292" y1="3.386" x2="6.292" y2="4.206" gradientUnits="userSpaceOnUse"><stop stop-color="#1A76DC"/><stop offset="1" stop-color="#000FA8"/></linearGradient><clipPath id="clip0"><path fill="#fff" transform="translate(0 .4)" d="M0 0h20v21H0z"/></clipPath></defs></svg>